<?xml version="1.0" encoding="UTF-8"?>
<!-- Generator: visioncortex VTracer 0.6.4 -->
<svg version="1.1" xmlns="http://www.w3.org/2000/svg" width="1098" height="672">
<path d="M0 0 C7.63 -0.03 15.26 -0.04 22.89 -0.05 C25.49 -0.06 28.08 -0.07 30.67 -0.08 C34.41 -0.09 38.15 -0.09 41.89 -0.1 C43.04 -0.1 44.19 -0.11 45.37 -0.11 C51.48 -0.11 57.47 0.12 63.54 0.78 C67.84 1.17 72.13 1.06 76.44 1 C92.04 0.89 92.04 0.89 99 2 C99.33 2.33 99.66 2.66 100 3 C101.76 3.1 103.51 3.19 105.27 3.24 C123.43 3.82 141.46 7.38 159 12 C160.63 12.43 160.63 12.43 162.29 12.86 C176.47 16.6 190.4 20.48 204 26 C205.39 26.56 206.78 27.11 208.17 27.66 C208.8 27.91 209.44 28.16 210.09 28.42 C213.13 29.35 215.85 29.2 219 29 C219.33 29.99 219.66 30.98 220 32 C222.69 32.96 222.69 32.96 225.88 33.56 C229.59 34.35 231.81 34.87 235 37 C235 37.99 235 38.98 235 40 C236.11 40.14 237.23 40.29 238.38 40.44 C242 41 242 41 244 42 C244.66 40.35 245.32 38.7 246 37 C246.99 37 247.98 37 249 37 C249 36.01 249 35.02 249 34 C252.3 34 255.6 34 259 34 C258.67 35.65 258.34 37.3 258 39 C259.09 38.96 260.19 38.92 261.31 38.88 C265 39 265 39 268 41 C269.15 41 270.31 41 271.5 41 C275 41 275 41 278 43 C278.19 43.93 278.19 43.93 278.38 44.88 C279.33 48.14 281.2 49.19 284 51 C287.19 51.8 287.19 51.8 290 52 C288.51 54.47 288.51 54.47 287 57 C288.67 57.19 288.67 57.19 290.38 57.38 C294 58 294 58 296 60 C297.32 60.7 298.65 61.37 300 62 C300 62.99 300 63.98 300 65 C300.99 65.66 301.98 66.32 303 67 C304.03 69.32 305.04 71.65 306 74 C306.66 74.66 307.32 75.32 308 76 C308.12 78.62 308.12 78.62 308 81 C309.98 81.66 311.96 82.32 314 83 C313.67 83.99 313.34 84.98 313 86 C313.99 86.66 314.98 87.32 316 88 C316 88.66 316 89.32 316 90 C314.68 89.67 313.36 89.34 312 89 C312.33 90.98 312.66 92.96 313 95 C313.89 95.12 314.77 95.25 315.69 95.38 C320.06 97.52 321.12 99.92 323.11 104.25 C324.23 107.71 324.32 110.6 323.98 114.19 C323.79 116.26 323.79 116.26 326 118 C326.67 120 327.33 122 328 124 C328.66 124.66 329.32 125.32 330 126 C329.48 126.5 328.97 126.99 328.44 127.5 C326.38 131.09 327.13 134.13 328 138 C328.37 139.09 328.74 140.19 329.12 141.31 C330.33 146.38 329.63 150.88 329 156 C329 158.66 329.14 161.3 329.25 163.96 C329.3 165.15 329.35 166.35 329.4 167.58 C329.51 170.1 329.62 172.63 329.73 175.15 C329.78 176.34 329.83 177.54 329.88 178.77 C329.95 180.42 329.95 180.42 330.02 182.1 C330 184.65 329.72 186.58 329 189 C328.91 190.46 328.87 191.92 328.88 193.38 C328.87 194.1 328.87 194.83 328.87 195.59 C328.96 198.08 328.96 198.08 329.5 200.85 C330.05 204.3 330.13 207.57 330.12 211.06 C330.13 212.25 330.13 213.44 330.13 214.66 C330.02 217.6 329.67 220.15 329 223 C328.22 226.49 327.84 229.8 327.72 233.38 C327.66 234.88 327.66 234.88 327.61 236.42 C327.54 238.52 327.46 240.62 327.39 242.72 C327.36 243.72 327.32 244.72 327.28 245.75 C327.24 247.12 327.24 247.12 327.19 248.51 C327.01 250.8 326.56 252.78 326 255 C325.89 258.93 325.89 258.93 326.56 262.5 C326.97 265.79 326.78 266.96 326 270 C325.86 271.86 325.77 273.72 325.7 275.59 C325.66 276.71 325.62 277.83 325.58 278.99 C325.54 280.2 325.5 281.41 325.46 282.66 C325.42 283.91 325.38 285.16 325.33 286.45 C325.24 289.11 325.16 291.77 325.07 294.42 C324.94 298.46 324.8 302.49 324.66 306.52 C324.58 309.11 324.49 311.7 324.4 314.28 C324.34 316.07 324.34 316.07 324.28 317.9 C324.07 324.37 323.97 330.83 324.04 337.3 C323.99 340.95 323.59 344.52 323.12 348.14 C323.08 348.75 323.04 349.37 323 350 C323.33 350.33 323.66 350.66 324 351 C324.16 353.51 324.26 356 324.32 358.51 C324.35 359.65 324.35 359.65 324.38 360.81 C324.44 363.25 324.5 365.69 324.56 368.12 C324.61 369.75 324.65 371.37 324.69 372.99 C325.2 392.32 325.2 392.32 324.44 397.25 C323.98 400.85 324.14 404.08 324.56 407.69 C325.05 412.11 324.6 414.81 323 419 C322.54 422.32 322.25 425.65 322 429 C319.69 429 317.38 429 315 429 C316.98 429.66 318.96 430.32 321 431 C321.59 434.68 322.05 438.27 322 442 C320.12 444.56 320.12 444.56 318 447 C317.51 449.54 317.32 452.01 317.18 454.6 C317.01 456.88 316.75 458.84 316 461 C315.34 461.33 314.68 461.66 314 462 C313.93 465.34 313.93 467.8 315 471 C314.01 471.33 313.02 471.66 312 472 C313.12 475.73 313.12 475.73 316 478 C315.49 478.36 314.99 478.72 314.46 479.1 C312.69 481 312.69 481 313.07 484 C313.4 486.29 313.73 488.58 314.07 490.87 C314 494 314 494 312.16 496.34 C310 498 310 498 307.81 499.06 C305.64 499.92 305.64 499.92 305 503 C305.66 503 306.32 503 307 503 C307 503.66 307 504.32 307 505 C305.51 505.87 305.51 505.87 304 506.75 C303.01 507.49 302.02 508.24 301 509 C300.83 511.92 300.83 511.92 301 515 C298.96 518.66 297.5 520.67 294 523 C291.07 522.87 291.07 522.87 287.69 522.44 C282.32 521.93 279.68 522.19 275 525 C272.55 525.59 270.09 526.02 267.6 526.46 C264.25 527.15 261.12 528.24 257.91 529.41 C256 530 256 530 253 530 C252.67 529.34 252.34 528.68 252 528 C251.94 528.58 251.88 529.15 251.81 529.75 C250.68 532.89 248.66 534.09 246 536 C246.37 536.58 246.74 537.15 247.12 537.75 C248 540 248 540 247.12 542.25 C246.75 542.83 246.38 543.4 246 544 C246.99 544.66 247.98 545.32 249 546 C249 546.99 249 547.98 249 549 C248.34 549.33 247.68 549.66 247 550 C249.46 551.23 251.28 551.07 254 551 C254.33 551.66 254.66 552.32 255 553 C254.34 553.33 253.68 553.66 253 554 C253.68 554.62 253.68 554.62 254.38 555.25 C256.89 557.95 258.02 559.9 257.94 563.66 C257.82 564.59 257.69 565.53 257.56 566.5 C257.11 570 256.91 572.62 258 576 C256.02 576.73 254.02 577.39 252 578 C251.34 577.67 250.68 577.34 250 577 C250 577.99 250 578.98 250 580 C251.65 580 253.3 580 255 580 C255.33 580.99 255.66 581.98 256 583 C254.35 583 252.7 583 251 583 C250.67 584.32 250.34 585.64 250 587 C250.99 587.33 251.98 587.66 253 588 C250.69 590.5 250.69 590.5 248 593 C247.01 593 246.02 593 245 593 C244.67 594.32 244.34 595.64 244 597 C244.66 597.33 245.32 597.66 246 598 C243 600 243 600 240 600 C240.21 600.91 240.41 601.82 240.62 602.75 C241.01 606.11 240.8 607.24 239 610 C239.99 610.33 240.98 610.66 242 611 C242.56 612.75 242.56 612.75 243 615 C243.37 615.87 243.74 616.73 244.12 617.62 C244.41 618.41 244.7 619.19 245 620 C244.67 620.66 244.34 621.32 244 622 C244.66 622.33 245.32 622.66 246 623 C246.48 624.78 246.48 624.78 246.75 626.94 C246.85 627.65 246.95 628.36 247.05 629.09 C247 631 247 631 245 633 C242.4 633.41 242.4 633.41 239.38 633.62 C238.37 633.7 237.37 633.77 236.34 633.85 C235.57 633.9 234.79 633.95 234 634 C234.99 634.99 235.98 635.98 237 637 C234.64 639.36 233.22 639.49 230 640 C230.33 640.99 230.66 641.98 231 643 C227.62 643.63 227.62 643.63 224 644 C223.34 643.34 222.68 642.68 222 642 C219.25 641.82 216.62 641.77 213.88 641.81 C213.08 641.82 212.28 641.83 211.46 641.84 C197.58 641.22 197.58 641.22 185 645 C182.22 645.54 179.49 645.99 176.69 646.38 C174.96 646.63 173.23 646.89 171.5 647.15 C170.59 647.29 169.69 647.43 168.76 647.57 C164.24 648.28 159.75 649.11 155.25 649.94 C130.15 654.56 104.99 658.86 79.74 662.59 C55.58 665.45 55.58 665.45 32 671 C29.46 670.35 27.04 669.47 24.57 668.59 C21.57 667.9 19.93 668.08 17 669 C16.28 669.51 15.56 670.02 14.81 670.55 C10.6 672.72 6.67 672.36 2 672.25 C1.07 672.24 0.13 672.23 -0.83 672.21 C-24.73 671.8 -24.73 671.8 -31 666 C-31 665.01 -31 664.02 -31 663 C-31.66 663 -32.32 663 -33 663 C-33 662.34 -33 661.68 -33 661 C-33.99 660.67 -34.98 660.34 -36 660 C-36.27 659.2 -36.54 658.39 -36.81 657.56 C-37.8 654.67 -37.8 654.67 -41.12 653.69 C-42.07 653.46 -43.02 653.23 -44 653 C-43.67 652.34 -43.34 651.68 -43 651 C-41.68 651 -40.36 651 -39 651 C-39 650.34 -39 649.68 -39 649 C-39.91 649.19 -40.82 649.37 -41.75 649.56 C-44.68 649.96 -46.26 649.95 -49 649 C-49 648.01 -49 647.02 -49 646 C-50.32 646 -51.64 646 -53 646 C-53.33 643.36 -53.66 640.72 -54 638 C-55.65 637.34 -57.3 636.68 -59 636 C-59 635.34 -59 634.68 -59 634 C-58.01 633.34 -57.02 632.68 -56 632 C-55.67 629.17 -55.67 629.17 -55.88 626 C-56.09 620.17 -56.09 620.17 -55 618 C-57.73 617.97 -60.46 617.95 -63.19 617.94 C-63.96 617.93 -64.73 617.92 -65.52 617.91 C-69.49 617.9 -73.13 618.01 -77 619 C-77 618.34 -77 617.68 -77 617 C-77.66 617.33 -78.32 617.66 -79 618 C-82.88 618.5 -86.79 618.76 -90.69 619.06 C-91.82 619.15 -92.96 619.25 -94.13 619.34 C-100.18 619.8 -106.12 620.08 -112.19 619.94 C-116.83 619.85 -120.78 620.29 -125.28 621.43 C-133.16 623.19 -140.94 623.75 -149 624.14 C-151.39 624.25 -153.79 624.39 -156.18 624.52 C-157.73 624.61 -159.29 624.69 -160.84 624.77 C-161.54 624.81 -162.24 624.84 -162.96 624.89 C-167.79 625.1 -172.24 624.7 -177 624 C-177 624.66 -177 625.32 -177 626 C-208.82 628.28 -208.82 628.28 -222.47 627.97 C-226.07 628 -229.45 628.48 -233 629 C-234.67 628.71 -236.35 628.39 -238 628 C-238.33 628.33 -238.66 628.66 -239 629 C-241.31 629.07 -243.63 629.08 -245.94 629.06 C-247.2 629.05 -248.47 629.04 -249.78 629.04 C-250.84 629.02 -251.9 629.01 -253 629 C-255.63 629 -258.23 629.23 -260.86 629.44 C-262.63 629.57 -262.63 629.57 -264.43 629.71 C-266.92 629.9 -269.4 630.09 -271.88 630.29 C-287.56 631.48 -287.56 631.48 -292 630 C-292.33 630.33 -292.66 630.66 -293 631 C-294.72 631.1 -296.45 631.14 -298.18 631.15 C-299.3 631.15 -300.41 631.16 -301.57 631.16 C-302.8 631.17 -304.04 631.17 -305.31 631.17 C-306.6 631.17 -307.89 631.18 -309.21 631.18 C-313.47 631.19 -317.74 631.19 -322 631.19 C-323.47 631.19 -324.95 631.19 -326.42 631.19 C-354.92 631.18 -383.35 630.39 -411.82 629.14 C-414.91 629 -418 628.87 -421.09 628.74 C-432.59 628.25 -444.09 627.71 -455.58 627.12 C-458.01 627 -460.44 626.88 -462.87 626.77 C-466.75 626.58 -470.64 626.38 -474.52 626.18 C-475.92 626.1 -477.33 626.03 -478.73 625.97 C-487.44 625.55 -495.75 624.46 -504.28 622.72 C-509.2 621.77 -514.13 621.14 -519.11 620.53 C-522 620 -522 620 -523.92 618.99 C-526.19 617.91 -527.73 617.74 -530.23 617.62 C-537.76 617 -544.97 614.9 -552.25 613 C-554.4 612.44 -556.56 611.89 -558.71 611.34 C-560.65 610.84 -562.6 610.34 -564.54 609.83 C-571.28 608.05 -571.28 608.05 -578 609 C-578.33 608.34 -578.66 607.68 -579 607 C-585.76 605.29 -591.03 605.79 -597.12 609.09 C-599 610 -599 610 -602 610 C-602.66 607.69 -603.32 605.38 -604 603 C-604.66 603 -605.32 603 -606 603 C-606 604.32 -606 605.64 -606 607 C-606.99 607 -607.98 607 -609 607 C-609.66 607.99 -610.32 608.98 -611 610 C-611.99 610.33 -612.98 610.66 -614 611 C-614.33 612.65 -614.66 614.3 -615 616 C-616.75 616.62 -616.75 616.62 -619 617 C-620.34 616.35 -621.67 615.68 -623 615 C-625.32 614.61 -627.66 614.27 -630 614 C-630 614.99 -630 615.98 -630 617 C-631.24 616.96 -632.48 616.92 -633.75 616.88 C-637.02 616.86 -639.21 617.14 -642 619 C-644.49 616.08 -645.59 613.83 -646 610 C-645.67 609.67 -645.34 609.34 -645 609 C-647.67 607.61 -647.67 607.61 -651 607 C-654.26 608.78 -654.26 608.78 -657 611 C-657.66 611 -658.32 611 -659 611 C-659.21 609.72 -659.41 608.44 -659.62 607.12 C-660.08 604.92 -660.08 604.92 -661 603 C-663.99 601.39 -663.99 601.39 -667 601 C-667 599.68 -667 598.36 -667 597 C-667.99 596.67 -668.98 596.34 -670 596 C-670.58 595.48 -671.15 594.97 -671.75 594.44 C-674.86 592.45 -677.37 592.93 -681 593 C-681.99 592.34 -682.98 591.68 -684 591 C-684 590.34 -684 589.68 -684 589 C-683.34 588.67 -682.68 588.34 -682 588 C-683.32 587.67 -684.64 587.34 -686 587 C-685.69 586.1 -685.69 586.1 -685.38 585.19 C-684.69 582.72 -684.69 582.72 -687 580 C-687 578.68 -687 577.36 -687 576 C-688.98 576 -690.96 576 -693 576 C-693.25 575.2 -693.5 574.39 -693.75 573.56 C-694.16 572.72 -694.58 571.87 -695 571 C-697.03 570.3 -697.03 570.3 -699 570 C-699.36 568.38 -699.71 566.75 -700.06 565.12 C-700.26 564.22 -700.46 563.32 -700.66 562.38 C-701 560 -701 560 -700 558 C-700.57 557.93 -701.15 557.86 -701.74 557.79 C-704.88 556.69 -706.12 554.9 -708.19 552.31 C-709.23 551.04 -709.23 551.04 -710.29 549.74 C-712.16 546.75 -712.66 544.48 -713 541 C-712.34 541 -711.68 541 -711 541 C-711.23 539.37 -711.48 537.75 -711.75 536.12 C-711.89 535.22 -712.03 534.32 -712.17 533.38 C-712.45 532.6 -712.72 531.81 -713 531 C-713.67 530.7 -714.34 530.39 -715.03 530.08 C-716 529.55 -716 529.55 -717 529 C-717.64 526.07 -717.64 526.07 -717.81 522.56 C-717.91 520.83 -717.91 520.83 -718.02 519.07 C-718 516 -718 516 -717 513 C-716.6 504.65 -717.35 495.96 -720 488 C-720.04 485.67 -720.04 483.33 -720 481 C-722.47 480.12 -723.64 479.87 -726.14 480.78 C-726.84 481.16 -727.53 481.54 -728.25 481.94 C-728.96 482.32 -729.66 482.7 -730.39 483.09 C-731.19 483.54 -731.19 483.54 -732 484 C-732 483.01 -732 482.02 -732 481 C-732.58 481.22 -733.15 481.44 -733.75 481.67 C-736 482 -736 482 -738 480.89 C-738.66 480.35 -739.32 479.81 -740 479.25 C-740.66 478.72 -741.32 478.19 -742 477.64 C-742.66 477.1 -743.32 476.56 -744 476 C-744.74 475.49 -745.47 474.98 -746.23 474.46 C-748 473 -748 473 -748.25 470.44 C-748.13 469.23 -748.13 469.23 -748 468 C-748 467.34 -748 466.68 -748 466 C-748.99 465.67 -749.98 465.34 -751 465 C-751.84 462.89 -751.84 462.89 -752.5 460.25 C-753.33 457.17 -754.01 454.99 -755.69 452.25 C-757.37 449.36 -757.22 447.29 -757 444 C-757 443.34 -757 442.68 -757 442 C-757.66 441.34 -758.32 440.68 -759 440 C-759.52 436.96 -759.92 433.98 -760.25 430.93 C-760.36 430.01 -760.47 429.09 -760.57 428.15 C-760.8 426.2 -761.02 424.25 -761.23 422.3 C-761.56 419.37 -761.89 416.44 -762.23 413.51 C-762.45 411.6 -762.66 409.7 -762.88 407.8 C-763.03 406.52 -763.03 406.52 -763.18 405.2 C-764.66 391.71 -765.22 378.16 -765.75 364.61 C-765.82 362.96 -765.89 361.32 -765.95 359.68 C-766.09 356.25 -766.22 352.83 -766.36 349.4 C-766.49 345.94 -766.63 342.49 -766.77 339.04 C-769.47 273.43 -769.47 273.43 -765.5 258.06 C-764.28 253.03 -763.95 248.42 -764.12 243.25 C-764.18 237.71 -763.47 233.4 -761.65 228.21 C-760.86 225.54 -761.02 223.11 -761.16 220.34 C-760.86 215.83 -759.29 211.57 -757.97 207.27 C-757.15 204.51 -756.51 201.83 -756 199 C-755.34 199 -754.68 199 -754 199 C-754.04 198.22 -754.08 197.43 -754.12 196.62 C-754 194 -754 194 -752 192 C-752.33 191.01 -752.66 190.02 -753 189 C-752.51 186.41 -752.51 186.41 -751.69 183.5 C-751.42 182.54 -751.16 181.58 -750.89 180.59 C-750 178 -750 178 -748 175 C-747.35 173.14 -747.35 173.14 -746.85 171.13 C-746.65 170.39 -746.45 169.65 -746.24 168.89 C-745.83 167.34 -745.43 165.8 -745.03 164.25 C-743.81 159.8 -742.74 156.98 -739 154 C-739.5 153.01 -739.5 153.01 -740 152 C-739 149 -739 149 -736 147 C-735.77 145.04 -735.55 143.08 -735.37 141.11 C-734.78 137.75 -733.18 135.56 -731 133 C-730.01 133 -729.02 133 -728 133 C-728.99 132.01 -729.98 131.02 -731 130 C-730.35 129.42 -730.35 129.42 -729.68 128.83 C-727.65 126.62 -726.45 124.35 -725.06 121.69 C-722.9 117.62 -720.57 113.82 -718 110 C-717.48 108.95 -716.97 107.9 -716.44 106.81 C-715.16 104.31 -714.2 102.72 -712 101 C-711.34 101 -710.68 101 -710 101 C-709.67 99.35 -709.34 97.7 -709 96 C-708.34 96 -707.68 96 -707 96 C-706.91 94.92 -706.91 94.92 -706.81 93.81 C-705.75 90.12 -703.71 88.71 -701 86 C-700.13 84.52 -699.3 83.02 -698.5 81.5 C-696.47 77.65 -694.17 75.01 -691 72 C-690.5 71.15 -690.01 70.31 -689.5 69.44 C-687.71 66.53 -685.82 64.9 -683 63 C-682.01 63 -681.02 63 -680 63 C-679.01 60.03 -679.01 60.03 -678 57 C-676.35 57 -674.7 57 -673 57 C-672.9 56.24 -672.79 55.47 -672.69 54.69 C-671.93 51.71 -671.32 50.92 -669 49 C-667.1 48.26 -667.1 48.26 -665.06 47.69 C-660.7 46.2 -659.44 43.88 -657 40 C-654.62 39.25 -654.62 39.25 -652 39 C-651.01 38.65 -650.02 38.3 -649 37.94 C-646.12 37.04 -643.98 36.82 -641 37 C-640.67 36.01 -640.34 35.02 -640 34 C-639.01 33.67 -638.02 33.34 -637 33 C-637 32.34 -637 31.68 -637 31 C-633.37 31 -629.74 31 -626 31 C-625.67 30.01 -625.34 29.02 -625 28 C-623.02 28 -621.04 28 -619 28 C-619 27.01 -619 26.02 -619 25 C-618.4 25.1 -617.79 25.19 -617.17 25.29 C-615.97 25.46 -615.97 25.46 -614.75 25.62 C-613.96 25.74 -613.17 25.86 -612.36 25.98 C-609.66 26 -608.35 25.24 -606 24 C-604.31 24.61 -602.65 25.29 -601 26 C-599.59 26.2 -598.17 26.37 -596.75 26.5 C-595.51 26.66 -594.27 26.83 -593 27 C-592.67 27.66 -592.34 28.32 -592 29 C-591.67 28.34 -591.34 27.68 -591 27 C-589.12 27.25 -589.12 27.25 -587 28 C-585.75 30.06 -585.75 30.06 -585 32 C-584.01 32 -583.02 32 -582 32 C-577.87 32.56 -574.67 34.04 -571 36 C-571 36.66 -571 37.32 -571 38 C-569.08 37.97 -569.08 37.97 -567.12 37.94 C-563.25 37.88 -563.25 37.88 -561 39 C-560.01 38.01 -559.02 37.02 -558 36 C-555.5 37.31 -555.5 37.31 -553 39 C-553 39.99 -553 40.98 -553 42 C-552.34 42.33 -551.68 42.66 -551 43 C-551 44.32 -551 45.64 -551 47 C-550.34 47.04 -549.68 47.08 -549 47.12 C-540.76 49.53 -536.18 55.88 -532 63 C-528.39 59.98 -524.96 57 -521.75 53.56 C-517.47 49.22 -512.44 45.74 -507 43 C-505.68 43 -504.36 43 -503 43 C-502.67 42.01 -502.34 41.02 -502 40 C-495.48 33.85 -487.53 33.3 -479 32 C-479 31.34 -479 30.68 -479 30 C-477.59 29.44 -476.17 28.9 -474.75 28.38 C-473.96 28.07 -473.17 27.77 -472.36 27.46 C-470 27 -470 27 -468.07 28.05 C-465.92 29.31 -465.92 29.31 -463.23 28.17 C-462.23 27.7 -461.22 27.23 -460.19 26.75 C-459.12 26.28 -458.06 25.8 -456.96 25.32 C-455.98 24.88 -455.01 24.45 -454 24 C-446.21 21.23 -439.04 21.81 -430.96 22.71 C-426.44 23.15 -421.9 23.38 -417.36 23.61 C-412.22 23.89 -412.22 23.89 -410 25 C-410 25.99 -410 26.98 -410 28 C-409.1 28.18 -409.1 28.18 -408.17 28.37 C-407.37 28.53 -406.57 28.7 -405.75 28.88 C-404.96 29.04 -404.17 29.2 -403.36 29.37 C-401.03 29.99 -399.11 30.85 -397 32 C-397.66 33.65 -398.32 35.3 -399 37 C-398.01 37.33 -397.02 37.66 -396 38 C-395.38 38.95 -394.76 39.9 -394.12 40.88 C-391.97 44.05 -390.38 45.31 -387 47 C-387.33 47.99 -387.66 48.98 -388 50 C-386.35 50 -384.7 50 -383 50 C-383 49.34 -383 48.68 -383 48 C-381.76 48.06 -380.52 48.12 -379.25 48.19 C-375.44 48.21 -373.95 47.44 -371 45 C-370.15 45.02 -369.31 45.04 -368.44 45.06 C-365.85 45.28 -365.85 45.28 -364.19 43.12 C-362.84 41.11 -362.84 41.11 -363 39 C-361.92 38.75 -361.92 38.75 -360.81 38.5 C-357.69 36.83 -357.25 35.96 -355.62 32.94 C-353.64 29.45 -353.42 29.12 -349.31 27.94 C-346 28 -346 28 -344 29 C-344 28.01 -344 27.02 -344 26 C-337.95 23.35 -331.94 22.12 -325.46 21 C-321.62 20.38 -321.62 20.38 -318 19 C-318 19.66 -318 20.32 -318 21 C-315.67 22.2 -315.67 22.2 -313 23 C-311.51 22.01 -311.51 22.01 -310 21 C-307.74 21.02 -307.74 21.02 -305.31 21.38 C-304.5 21.49 -303.7 21.6 -302.86 21.71 C-302.25 21.81 -301.63 21.9 -301 22 C-301 20.35 -301 18.7 -301 17 C-299.68 17.33 -298.36 17.66 -297 18 C-296.67 17.34 -296.34 16.68 -296 16 C-293.75 16.19 -293.75 16.19 -291 17 C-290.48 17.83 -289.97 18.66 -289.44 19.52 C-286.7 22.31 -286.22 22.36 -282.52 22.53 C-279.88 22.55 -277.25 22.5 -274.62 22.45 C-268.35 22.5 -263.73 23.67 -259 28 C-259 28.66 -259 29.32 -259 30 C-258.36 30.14 -257.72 30.29 -257.06 30.44 C-255 31 -255 31 -254 32 C-247.77 31.56 -241.72 30.42 -235.6 29.23 C-231.69 28.48 -227.78 27.8 -223.85 27.21 C-222.99 27.08 -222.13 26.95 -221.25 26.82 C-219.57 26.57 -217.89 26.33 -216.21 26.09 C-212.52 25.54 -210.15 25.1 -207 23 C-204.89 22.61 -202.76 22.31 -200.63 22.07 C-198.7 21.84 -198.7 21.84 -196.73 21.61 C-196.05 21.53 -195.37 21.45 -194.67 21.37 C-182.4 19.95 -170.33 18.07 -158.26 15.47 C-153.62 14.51 -148.95 13.74 -144.29 12.95 C-141.43 12.46 -138.76 11.92 -136 11 C-132.52 10.73 -129.03 10.55 -125.54 10.38 C-122.05 10.15 -122.05 10.15 -119.13 8.97 C-114.92 7.67 -111.06 7.82 -106.69 7.94 C-103.79 8 -100.9 8.02 -98 8 C-97.67 7.67 -97.34 7.34 -97 7 C-95.34 6.78 -93.68 6.63 -92.01 6.5 C-91 6.42 -89.98 6.33 -88.93 6.25 C-87.86 6.17 -86.79 6.08 -85.69 6 C-83.59 5.84 -81.49 5.67 -79.39 5.5 C-78.45 5.43 -77.51 5.36 -76.55 5.28 C-74.27 5.03 -72.21 4.57 -70 4 C-67.98 3.98 -65.96 4.01 -63.94 4.06 C-59.79 4.1 -56.1 3.93 -52.06 3 C-45.71 1.69 -39.45 1.9 -33 1.97 C-21.98 2.07 -11 1.54 0 1 C0 0.67 0 0.34 0 0 Z M-607 31 C-607.99 31.99 -608.98 32.98 -610 34 C-607.52 34.99 -607.52 34.99 -605 36 C-604.67 34.68 -604.34 33.36 -604 32 C-604.99 31.67 -605.98 31.34 -607 31 Z M-582 34 C-582.33 34.66 -582.66 35.32 -583 36 C-582.01 35.67 -581.02 35.34 -580 35 C-580.66 34.67 -581.32 34.34 -582 34 Z M-620 35 C-619.34 35.66 -618.68 36.32 -618 37 C-617.34 36.34 -616.68 35.68 -616 35 C-617.32 35 -618.64 35 -620 35 Z M-606 41 C-606 41.66 -606 42.32 -606 43 C-605.01 43 -604.02 43 -603 43 C-603 42.34 -603 41.68 -603 41 C-603.99 41 -604.98 41 -606 41 Z M-549 56 C-549.99 56.99 -550.98 57.98 -552 59 C-550.02 58.34 -548.04 57.68 -546 57 C-546.99 56.67 -547.98 56.34 -549 56 Z M282 62 C283.98 62.99 283.98 62.99 286 64 C286.33 63.34 286.66 62.68 287 62 C285.35 62 283.7 62 282 62 Z M292 63 C292.33 63.99 292.66 64.98 293 66 C293.66 65.34 294.32 64.68 295 64 C294.01 63.67 293.02 63.34 292 63 Z M303 90 C304 92 304 92 304 92 Z M-749 193 C-749 193.33 -749 193.66 -749 194 C-747.35 194 -745.7 194 -744 194 C-744 193.67 -744 193.34 -744 193 C-745.65 193 -747.3 193 -749 193 Z M296 450 C295.67 450.99 295.34 451.98 295 453 C296.65 453 298.3 453 300 453 C299.02 451.98 298.02 450.98 297 450 C296.67 450 296.34 450 296 450 Z M239 525 C239 525.66 239 526.32 239 527 C240.32 526.67 241.64 526.34 243 526 C241.68 525.67 240.36 525.34 239 525 Z M242 540 C246 541 246 541 246 541 Z M242 555 C241.34 555.66 240.68 556.32 240 557 C241.65 556.67 243.3 556.34 245 556 C244.01 555.67 243.02 555.34 242 555 Z M-623 604 C-622.67 604.66 -622.34 605.32 -622 606 C-620.68 605.67 -619.36 605.34 -618 605 C-619.65 604.67 -621.3 604.34 -623 604 Z M-525 605 C-525 605.66 -525 606.32 -525 607 C-524.34 606.67 -523.68 606.34 -523 606 C-523.66 605.67 -524.32 605.34 -525 605 Z M-516 605 C-516 605.99 -516 606.98 -516 608 C-517.65 608.66 -519.3 609.32 -521 610 C-520.67 610.66 -520.34 611.32 -520 612 C-518.68 612 -517.36 612 -516 612 C-513.73 609.58 -513.73 609.58 -512 607 C-512.66 607 -513.32 607 -514 607 C-514 606.34 -514 605.68 -514 605 C-514.66 605 -515.32 605 -516 605 Z M-523 607 C-522.01 608.49 -522.01 608.49 -521 610 C-521 609.01 -521 608.02 -521 607 C-521.66 607 -522.32 607 -523 607 Z M-632 609 C-632 609.66 -632 610.32 -632 611 C-629.36 611 -626.72 611 -624 611 C-627.23 608.85 -628.28 608.8 -632 609 Z M-81 611 C-81.33 611.99 -81.66 612.98 -82 614 C-81.34 614 -80.68 614 -80 614 C-80.33 613.01 -80.66 612.02 -81 611 Z M-171 615 C-169.02 615.99 -169.02 615.99 -167 617 C-167 616.34 -167 615.68 -167 615 C-168.32 615 -169.64 615 -171 615 Z M-302 621 C-301 623 -301 623 -301 623 Z M233 626 C235.48 626.5 235.48 626.5 238 627 C237.67 626.01 237.34 625.02 237 624 C235.54 623.91 235.54 623.91 233 626 Z " fill="#0A96E5" transform="translate(768,0)"/>
</svg>
